<svg width="2075" height="1200" viewBox="0 0 2075 1200" fill="none" xmlns="http://www.w3.org/2000/svg">
<path d="M281.5 703C387.56 561.139 692.5 425 784.5 684.5C797 634.002 804 630.402 828 634.002C858 638.502 892 612.997 926.5 623.499C961 634.002 1058 641.5 1121 623.499C1184 605.498 1148 792.498 1111.5 868.498C1111.5 877.298 1117.83 899.165 1121 908.998C1142.67 878.165 1189.8 821.698 1205 842.498C1224 868.498 1262.5 901.998 1267 924.498C1271.5 946.998 1288 933.498 1313 941.998C1338 950.498 1360 946.498 1371 970.498C1382 994.498 1389 1015 1396 1019.5C1403 1024 1451.5 1012.5 1463.5 1010C1475.5 1007.5 1490.5 976.498 1477 950.498C1463.5 924.498 1451 806.498 1487.5 772.498C1524 738.498 1572.5 742.498 1588 757.498C1603.5 772.498 1660.5 667.998 1660.5 599.498C1660.5 544.698 1750.5 618.665 1795.5 662.498" stroke="white" stroke-opacity="0.8" stroke-width="24" stroke-linecap="round" stroke-linejoin="round"/>
<path d="M281.5 703C387.56 561.139 692.5 425 784.5 684.5C797 634.002 804 630.402 828 634.002C858 638.502 892 612.997 926.5 623.499C961 634.002 1058 641.5 1121 623.499C1184 605.498 1148 792.498 1111.5 868.498C1111.5 877.298 1117.83 899.165 1121 908.998C1142.67 878.165 1189.8 821.698 1205 842.498C1224 868.498 1262.5 901.998 1267 924.498C1271.5 946.998 1288 933.498 1313 941.998C1338 950.498 1360 946.498 1371 970.498C1382 994.498 1389 1015 1396 1019.5C1403 1024 1451.5 1012.5 1463.5 1010C1475.5 1007.5 1490.5 976.498 1477 950.498C1463.5 924.498 1451 806.498 1487.5 772.498C1524 738.498 1572.5 742.498 1588 757.498C1603.5 772.498 1660.5 667.998 1660.5 599.498C1660.5 544.698 1750.5 618.665 1795.5 662.498" stroke="#1B6B8A" stroke-opacity="0.2" stroke-width="12" stroke-linecap="round" stroke-linejoin="round" stroke-dasharray="24 24"/>
<path d="M1463.5 1010C1475.5 1007.5 1490.5 976.499 1477 950.499C1463.5 924.499 1451 806.499 1487.5 772.499C1524 738.499 1572.5 742.499 1588 757.499C1603.5 772.499 1660.5 667.999 1660.5 599.499C1660.5 544.699 1750.5 618.665 1795.5 662.499" stroke="#1B6B8A" stroke-width="12" stroke-linecap="round" stroke-linejoin="round" stroke-dasharray="24 24"/>
<g clip-path="url(#clip0_769_1505)">
<g filter="url(#filter0_d_769_1505)">
<path d="M1535 905.961C1521.33 905.976 1508.22 911.414 1498.56 921.08C1488.89 930.747 1483.45 943.853 1483.44 957.523C1483.44 1001.64 1530.31 1034.97 1532.31 1036.36C1533.1 1036.91 1534.04 1037.21 1535 1037.21C1535.96 1037.21 1536.9 1036.91 1537.69 1036.36C1539.69 1034.97 1586.56 1001.64 1586.56 957.523C1586.55 943.853 1581.11 930.747 1571.44 921.08C1561.78 911.414 1548.67 905.976 1535 905.961Z" fill="#1B6B8A"/>
<path d="M1594.55 958.686C1594.15 983.035 1581.24 1003.78 1568.96 1018.16C1556.38 1032.9 1543.55 1042.03 1542.27 1042.92L1542.27 1042.92C1540.14 1044.41 1537.6 1045.21 1535 1045.21C1532.4 1045.21 1529.86 1044.41 1527.73 1042.92V1042.92C1526.45 1042.03 1513.62 1032.9 1501.04 1018.16C1488.57 1003.55 1475.44 982.375 1475.44 957.523V957.515L1475.44 956.774C1475.65 941.253 1481.91 926.414 1492.9 915.424C1504.06 904.259 1519.2 897.979 1534.99 897.961H1535.01C1550.8 897.979 1565.94 904.259 1577.1 915.424C1588.26 926.588 1594.54 941.726 1594.56 957.515V957.523L1594.55 958.686Z" stroke="white" stroke-width="16"/>
</g>
<path d="M1512.73 996V985.788C1516.47 982.721 1520.15 979.685 1523.77 976.68C1527.45 973.675 1530.73 970.7 1533.61 967.756C1536.56 964.751 1538.89 961.837 1540.61 959.016C1542.32 956.133 1543.18 953.373 1543.18 950.736C1543.18 949.203 1542.88 947.792 1542.26 946.504C1541.71 945.155 1540.82 944.112 1539.59 943.376C1538.43 942.579 1536.86 942.18 1534.9 942.18C1533 942.18 1531.38 942.609 1530.03 943.468C1528.68 944.327 1527.66 945.523 1526.99 947.056C1526.32 948.528 1525.98 950.245 1525.98 952.208H1512.64C1512.82 947.301 1513.93 943.223 1515.95 939.972C1517.97 936.721 1520.67 934.329 1524.05 932.796C1527.48 931.263 1531.25 930.496 1535.36 930.496C1540.15 930.496 1544.13 931.385 1547.32 933.164C1550.51 934.881 1552.9 937.212 1554.5 940.156C1556.15 943.039 1556.98 946.259 1556.98 949.816C1556.98 952.637 1556.49 955.367 1555.51 958.004C1554.53 960.58 1553.18 963.095 1551.46 965.548C1549.74 967.94 1547.78 970.271 1545.57 972.54C1543.43 974.748 1541.16 976.895 1538.77 978.98C1536.37 981.004 1534.01 982.936 1531.68 984.776H1558.27V996H1512.73Z" fill="white"/>
</g>
<defs>
<filter id="filter0_d_769_1505" x="1434.1" y="856.628" width="201.792" height="229.917" filterUnits="userSpaceOnUse" color-interpolation-filters="sRGB">
<feFlood flood-opacity="0" result="BackgroundImageFix"/>
<feColorMatrix in="SourceAlpha" type="matrix" values="0 0 0 0 0 0 0 0 0 0 0 0 0 0 0 0 0 0 127 0" result="hardAlpha"/>
<feOffset/>
<feGaussianBlur stdDeviation="16.6667"/>
<feComposite in2="hardAlpha" operator="out"/>
<feColorMatrix type="matrix" values="0 0 0 0 0.938461 0 0 0 0 0.938461 0 0 0 0 0.938461 0 0 0 0.25 0"/>
<feBlend mode="normal" in2="BackgroundImageFix" result="effect1_dropShadow_769_1505"/>
<feBlend mode="normal" in="SourceGraphic" in2="effect1_dropShadow_769_1505" result="shape"/>
</filter>
<clipPath id="clip0_769_1505">
<rect width="150" height="181.25" fill="white" transform="translate(1460 882)"/>
</clipPath>
</defs>
</svg>
