<svg width="2075" height="1200" viewBox="0 0 2075 1200" fill="none" xmlns="http://www.w3.org/2000/svg">
<g clip-path="url(#clip0_769_1484)">
<g filter="url(#filter0_d_769_1484)">
<path d="M1066 403.961C1052.33 403.976 1039.22 409.414 1029.56 419.08C1019.89 428.747 1014.45 441.853 1014.44 455.523C1014.44 499.645 1061.31 532.967 1063.31 534.361C1064.1 534.913 1065.04 535.21 1066 535.21C1066.96 535.21 1067.9 534.913 1068.69 534.361C1070.69 532.967 1117.56 499.645 1117.56 455.523C1117.55 441.853 1112.11 428.747 1102.44 419.08C1092.78 409.414 1079.67 403.976 1066 403.961Z" fill="#1B6B8A"/>
<path d="M1125.55 456.686C1125.15 481.035 1112.24 501.778 1099.96 516.159C1087.38 530.9 1074.55 540.025 1073.27 540.922L1073.27 540.92C1071.14 542.409 1068.6 543.21 1066 543.21C1063.4 543.21 1060.86 542.41 1058.73 540.92V540.922C1057.45 540.025 1044.62 530.9 1032.04 516.159C1019.57 501.55 1006.44 480.375 1006.44 455.523V455.515L1006.44 454.774C1006.65 439.253 1012.91 424.414 1023.9 413.424C1035.06 402.259 1050.2 395.979 1065.99 395.961H1066.01C1081.8 395.979 1096.94 402.259 1108.1 413.424C1119.26 424.588 1125.54 439.726 1125.56 455.515V455.523L1125.55 456.686Z" stroke="white" stroke-width="16"/>
</g>
<path d="M1066.87 495.104C1062.03 495.104 1057.89 494.276 1054.45 492.62C1051.02 490.903 1048.35 488.603 1046.45 485.72C1044.55 482.776 1043.48 479.464 1043.23 475.784H1056.66C1057.03 477.869 1058.13 479.679 1059.97 481.212C1061.88 482.684 1064.18 483.42 1066.87 483.42C1068.84 483.42 1070.55 482.929 1072.03 481.948C1073.56 480.905 1074.72 479.525 1075.52 477.808C1076.38 476.029 1076.81 474.067 1076.81 471.92C1076.81 469.651 1076.38 467.719 1075.52 466.124C1074.66 464.468 1073.5 463.241 1072.03 462.444C1070.55 461.585 1068.87 461.156 1066.97 461.156C1064.7 461.156 1062.7 461.739 1060.99 462.904C1059.27 464.008 1058.04 465.357 1057.31 466.952H1043.97L1049.3 429.6H1086.1V441.652H1059.51L1057.12 454.348C1058.41 453.06 1060.13 452.017 1062.27 451.22C1064.48 450.423 1066.9 450.024 1069.54 450.024C1073.1 450.024 1076.17 450.637 1078.74 451.864C1081.32 453.029 1083.46 454.655 1085.18 456.74C1086.9 458.825 1088.16 461.156 1088.95 463.732C1089.75 466.308 1090.15 468.976 1090.15 471.736C1090.15 475.232 1089.57 478.421 1088.4 481.304C1087.24 484.125 1085.61 486.579 1083.53 488.664C1081.44 490.688 1078.96 492.283 1076.07 493.448C1073.25 494.552 1070.19 495.104 1066.87 495.104Z" fill="white"/>
</g>
<path d="M281.5 703C387.56 561.139 692.5 425 784.5 684.5C797 634.002 804 630.402 828 634.002C858 638.502 892 612.997 926.5 623.499C961 634.002 1058 641.5 1121 623.499C1184 605.498 1148 792.498 1111.5 868.498C1111.5 877.298 1117.83 899.165 1121 908.998C1142.67 878.165 1189.8 821.698 1205 842.498C1224 868.498 1262.5 901.998 1267 924.498C1271.5 946.998 1288 933.498 1313 941.998C1338 950.498 1360 946.498 1371 970.498C1382 994.498 1389 1015 1396 1019.5C1403 1024 1451.5 1012.5 1463.5 1010C1475.5 1007.5 1490.5 976.498 1477 950.498C1463.5 924.498 1451 806.498 1487.5 772.498C1524 738.498 1572.5 742.498 1588 757.498C1603.5 772.498 1660.5 667.998 1660.5 599.498C1660.5 544.698 1750.5 618.665 1795.5 662.498" stroke="white" stroke-opacity="0.8" stroke-width="24" stroke-linecap="round" stroke-linejoin="round"/>
<path d="M281.5 703C387.56 561.139 692.5 425 784.5 684.5C797 634.002 804 630.402 828 634.002C858 638.502 892 612.997 926.5 623.499C961 634.002 1058 641.5 1121 623.499C1184 605.498 1148 792.498 1111.5 868.498C1111.5 877.298 1117.83 899.165 1121 908.998C1142.67 878.165 1189.8 821.698 1205 842.498C1224 868.498 1262.5 901.998 1267 924.498C1271.5 946.998 1288 933.498 1313 941.998C1338 950.498 1360 946.498 1371 970.498C1382 994.498 1389 1015 1396 1019.5C1403 1024 1451.5 1012.5 1463.5 1010C1475.5 1007.5 1490.5 976.498 1477 950.498C1463.5 924.498 1451 806.498 1487.5 772.498C1524 738.498 1572.5 742.498 1588 757.498C1603.5 772.498 1660.5 667.998 1660.5 599.498C1660.5 544.698 1750.5 618.665 1795.5 662.498" stroke="#1B6B8A" stroke-opacity="0.2" stroke-width="12" stroke-linecap="round" stroke-linejoin="round" stroke-dasharray="24 24"/>
<path d="M1121 623.5C1184 605.499 1148 792.499 1111.5 868.499C1111.5 877.299 1117.83 899.165 1121 908.999C1142.67 878.165 1189.8 821.699 1205 842.499C1224 868.499 1262.5 901.999 1267 924.499C1271.5 946.999 1288 933.499 1313 941.999C1338 950.499 1360 946.499 1371 970.499C1382 994.499 1389 1015 1396 1019.5C1403 1024 1451.5 1012.5 1463.5 1010C1475.5 1007.5 1490.5 976.499 1477 950.499C1463.5 924.499 1451 806.499 1487.5 772.499C1524 738.499 1572.5 742.499 1588 757.499C1603.5 772.499 1660.5 667.999 1660.5 599.499C1660.5 544.699 1750.5 618.665 1795.5 662.499" stroke="#1B6B8A" stroke-width="12" stroke-linecap="round" stroke-linejoin="round" stroke-dasharray="24 24"/>
<defs>
<filter id="filter0_d_769_1484" x="965.104" y="354.628" width="201.792" height="229.917" filterUnits="userSpaceOnUse" color-interpolation-filters="sRGB">
<feFlood flood-opacity="0" result="BackgroundImageFix"/>
<feColorMatrix in="SourceAlpha" type="matrix" values="0 0 0 0 0 0 0 0 0 0 0 0 0 0 0 0 0 0 127 0" result="hardAlpha"/>
<feOffset/>
<feGaussianBlur stdDeviation="16.6667"/>
<feComposite in2="hardAlpha" operator="out"/>
<feColorMatrix type="matrix" values="0 0 0 0 0.938461 0 0 0 0 0.938461 0 0 0 0 0.938461 0 0 0 0.25 0"/>
<feBlend mode="normal" in2="BackgroundImageFix" result="effect1_dropShadow_769_1484"/>
<feBlend mode="normal" in="SourceGraphic" in2="effect1_dropShadow_769_1484" result="shape"/>
</filter>
<clipPath id="clip0_769_1484">
<rect width="150" height="181.25" fill="white" transform="translate(991 380)"/>
</clipPath>
</defs>
</svg>
